# xmcd
#
# Track frame offsets:
# 151
# 24174
# 47923
# 82741
# 102318
# 118040
# 141015
# 160720
# 187909
# 215986
# 230603
# 244199
# 258864
# 272895
# 287770
# 304862
#
# Disc length: 4322 seconds
#
# Revision: 0
# Processed by: cddbd v1.5.1PL2 Copyright (c) Steve Scherf et al.
# Submitted via: Audion 3.0.2 (http://www.panic.com/audion/)
#
DISCID=dd10e010
DTITLE=Steely Dan - Goldrush
DYEAR=1900
DGENRE=
TTITLE0=My Old School
TTITLE1=Pretzel Logic
TTITLE2=Do it Again
TTITLE3=Rikki Don't Loose that Nmber
TTITLE4=Any Major Dude
TTITLE5=King of the World
TTITLE6=Barry Town
TTITLE7=Do It Again
TTITLE8=Reeling in the Years
TTITLE9=Daddy Don't Live in NYC No More
TTITLE10=Chain Lightning
TTITLE11=Black Friday
TTITLE12=Rose Darling
TTITLE13=Throw Back the Little Ones
TTITLE14=Doctor Wu
TTITLE15=Your Cold Teeth
EXTD=
EXTT0=
EXTT1=
EXTT2=
EXTT3=
EXTT4=
EXTT5=
EXTT6=
EXTT7=
EXTT8=
EXTT9=
EXTT10=
EXTT11=
EXTT12=
EXTT13=
EXTT14=
EXTT15=
PLAYORDER=
